<svg xmlns="http://www.w3.org/2000/svg" viewBox="0 0 243.92 87.46"><defs><style>.cls-1{fill:#fff;}.cls-2{fill:#0c3219;}.cls-3{fill:#67bd91;}</style></defs><title>アセット 7</title><g id="レイヤー_2" data-name="レイヤー 2"><g id="レイヤー_1-2" data-name="レイヤー 1"><path class="cls-1" d="M70,54.71A138.26,138.26,0,0,0,87.27,86.3a138.78,138.78,0,0,0-31.77-17c-1.75-.66-3.48-1.26-5.19-1.83l-5-22.74,22.79,4.78Q68.95,52.11,70,54.71Z"/><path class="cls-2" d="M70,54.69A126.47,126.47,0,0,0,77.69,71a148.68,148.68,0,0,0,9.79,15.14l1,1.31-1.34-.94A140.55,140.55,0,0,0,69.33,75.83c-3.09-1.55-6.23-3-9.43-4.31-1.6-.65-3.21-1.28-4.84-1.87L50.16,68l-.26-.09,0-.26L47.31,56.24c-.83-3.79-1.7-7.58-2.47-11.38l-.15-.7.69.15C53,46,60.52,47.79,68.1,49.44l.06,0,0,0Zm-.09,0L68,49.58l.07.06c-7.61-1.53-15.26-2.89-22.87-4.43l.55-.55c.89,3.78,1.7,7.57,2.54,11.36L50.77,67.4l-.31-.35,4.91,1.76c1.63.62,3.24,1.27,4.85,1.94,3.2,1.37,6.35,2.84,9.44,4.44A140.76,140.76,0,0,1,87.42,86.08l-.37.38a138.75,138.75,0,0,1-9.57-15.33A152,152,0,0,1,69.92,54.73Z"/><path class="cls-1" d="M33.33,18.46a138.78,138.78,0,0,1-31.77-17,138.63,138.63,0,0,1,17.3,31.59c.68,1.74,1.3,3.46,1.89,5.17L43.54,43l-5-22.74C36.81,19.72,35.08,19.12,33.33,18.46Z"/><path class="cls-2" d="M33.31,18.51c-2.83-1-5.61-2.2-8.38-3.37s-5.51-2.46-8.2-3.82S11.41,8.46,8.84,6.87,3.77,3.58,1.35,1.78l.5-.5c2,2.84,3.87,5.77,5.69,8.73s3.51,6,5.15,9,3.19,6.18,4.61,9.35c.7,1.59,1.4,3.19,2,4.81l1.84,4.88-.33-.29,11.41,2.32,11.4,2.41-.6.6q-.64-2.84-1.21-5.7l-1.15-5.7L39.57,26c-.39-1.9-.74-3.81-1.15-5.71l.07.07Zm0-.1,5.2,1.78.05,0,0,.06C39,22.16,39.53,24,40,25.93l1.39,5.65,1.36,5.67q.68,2.84,1.31,5.67l.16.77-.76-.16L32,41.15,20.65,38.69l-.24-.06-.09-.24L18.6,33.5q-.9-2.43-1.88-4.84c-1.32-3.2-2.75-6.36-4.34-9.43s-3.3-6.1-5.16-9S3.35,4.47,1.27,1.7L0,0,1.77,1.2c2.48,1.68,5,3.35,7.54,4.91s5.13,3.13,7.75,4.58,5.28,2.88,8,4.18S30.55,17.32,33.35,18.41Z"/><path class="cls-3" d="M64.72,37.86q5.09-12.12,10.16-24.22L50.77,24.05,46,26.19l-.14,16.75,16.76-.31Z"/><path class="cls-3" d="M38.44,64.42,14.33,74.83q5.07-12.1,10.16-24.22l2.08-4.77,16.76-.32-.14,16.76Z"/><path class="cls-3" d="M32.52,32.12l9.92,4,2,.83v6.92L37.45,44l-.84-2"/><path class="cls-3" d="M56.53,55.88l-9.93-4-2-.82V44.14l6.93-.09.84,2"/><path class="cls-1" d="M85.61,29.54a.71.71,0,0,1,.76-.72h.54a.93.93,0,0,1,.9.59l8.91,19.21c.18.39.36.8.54,1.22s.35.79.5,1.12.31.83.49,1.22h.09c.15-.39.32-.8.5-1.22s.31-.7.49-1.12.36-.83.54-1.22l8.91-19.21a.93.93,0,0,1,.9-.59h.54a.72.72,0,0,1,.77.72l2.43,30c0,.54-.26.81-.77.81h-.4a.72.72,0,0,1-.77-.72l-1.89-23.31a11.94,11.94,0,0,1-.11-1.3c0-.48,0-.93,0-1.35V32.11h-.09l-.54,1.53c-.15.42-.32.87-.52,1.35s-.38.91-.56,1.3L99.56,53.66a.93.93,0,0,1-.9.59h-.72a.93.93,0,0,1-.9-.59L88.89,36.29c-.18-.36-.36-.78-.56-1.28s-.37-1-.52-1.42-.37-1.06-.58-1.57h-.09v1.57c0,.45,0,.92,0,1.4s-.06.91-.09,1.3L85.11,59.6a.71.71,0,0,1-.76.72h-.41c-.51,0-.76-.27-.76-.81Z"/><path class="cls-3" d="M124.45,61.34a1.84,1.84,0,0,1-1.63-.26,10.25,10.25,0,0,1-3.76-7.9c0-5.25,5.45-14.79,15.74-14.79.88,0,1.26.36,1.32.87a11.91,11.91,0,0,1,.25,2.55c0,5.66-5.33,9.48-8.6,10.6-2.06.67-2.82-1.37-1.25-1.93,5.08-2,7.21-5.92,7.21-8.11a18,18,0,0,0-.18-1.84c-8.79,1.18-11.86,9.49-11.86,13a7.19,7.19,0,0,0,2.51,5.66l9.66-2c1.82-.36,2.45,1.73.63,2Z"/><path class="cls-1" d="M142.53,38.59a.68.68,0,0,1,.77-.77h.36a.68.68,0,0,1,.76.77v3.19c0,.27,0,.52,0,.75a3.7,3.7,0,0,1-.07.56l-.09.54h.09a7.79,7.79,0,0,1,1-1.89,10.29,10.29,0,0,1,1.93-2.07A11.54,11.54,0,0,1,150.12,38a9.57,9.57,0,0,1,3.75-.7,9,9,0,0,1,3.63.63,5.68,5.68,0,0,1,2.27,1.78A6.9,6.9,0,0,1,161,42.46a17.34,17.34,0,0,1,.34,3.6v13.5a.68.68,0,0,1-.77.76h-.36a.67.67,0,0,1-.76-.76V46.71a24.11,24.11,0,0,0-.16-2.87,6.71,6.71,0,0,0-.72-2.43,4.15,4.15,0,0,0-1.66-1.69,6,6,0,0,0-3-.64,9,9,0,0,0-3.64.75,8.81,8.81,0,0,0-3,2.1,10.29,10.29,0,0,0-2.05,3.18,10.17,10.17,0,0,0-.77,4V59.56a.67.67,0,0,1-.76.76h-.36a.68.68,0,0,1-.77-.76Z"/><path class="cls-1" d="M169.26,39.67h-2.2a.68.68,0,0,1-.77-.77v-.18a.68.68,0,0,1,.77-.76h2.2V32.33a.68.68,0,0,1,.77-.76h.36a.67.67,0,0,1,.76.76V38h5.13a.68.68,0,0,1,.77.76v.18a.68.68,0,0,1-.77.77h-5.13V52a8.75,8.75,0,0,0,.61,3.57,5.3,5.3,0,0,0,1.46,2,4.44,4.44,0,0,0,1.8.88,12.24,12.24,0,0,0,1.62.24c.6,0,.9.3.9.79v.23a.68.68,0,0,1-.76.78,8.86,8.86,0,0,1-3.42-.6A6,6,0,0,1,171,58.19a7.3,7.3,0,0,1-1.33-2.64,12.23,12.23,0,0,1-.43-3.37Z"/><path class="cls-1" d="M182.09,29.59a.68.68,0,0,1,.76-.77h.36a.68.68,0,0,1,.77.77V41.78c0,.27,0,.52,0,.75s0,.41-.07.56l-.09.54h.09a8.06,8.06,0,0,1,1-1.89,10.35,10.35,0,0,1,1.94-2.07A11.29,11.29,0,0,1,189.67,38a9.66,9.66,0,0,1,3.76-.7,8.94,8.94,0,0,1,3.62.63,5.62,5.62,0,0,1,2.27,1.78,7.05,7.05,0,0,1,1.2,2.77,18.08,18.08,0,0,1,.33,3.6v13.5a.67.67,0,0,1-.76.76h-.36a.68.68,0,0,1-.77-.76V46.71a26.47,26.47,0,0,0-.15-2.87,6.91,6.91,0,0,0-.72-2.43,4.18,4.18,0,0,0-1.67-1.69,5.9,5.9,0,0,0-3-.64,9.07,9.07,0,0,0-6.64,2.85,10.31,10.31,0,0,0-2,3.22,10.7,10.7,0,0,0-.76,4.08V59.56a.68.68,0,0,1-.77.76h-.36a.67.67,0,0,1-.76-.76Z"/><path class="cls-1" d="M206.07,54.32a6.38,6.38,0,0,1,.77-3.23,6.73,6.73,0,0,1,2-2.19,9.82,9.82,0,0,1,2.74-1.33,19.83,19.83,0,0,1,3.08-.7,26.8,26.8,0,0,1,3-.27c.94,0,1.74-.05,2.4-.05h1.49v-.76a9.63,9.63,0,0,0-.45-3.17,5,5,0,0,0-1.29-2.07,4.77,4.77,0,0,0-2-1.13,8.8,8.8,0,0,0-2.48-.34,9.44,9.44,0,0,0-3.55.61,14.78,14.78,0,0,0-2.25,1.1.72.72,0,0,1-1.08-.18l-.18-.27a.66.66,0,0,1,.13-1.08A14.3,14.3,0,0,1,211,38a12,12,0,0,1,4.45-.73,7.82,7.82,0,0,1,5.94,2.14q2,2.14,2,6.37V59.56a.68.68,0,0,1-.77.76h-.36a.67.67,0,0,1-.76-.76V57.35c0-.3,0-.57,0-.83s0-.47.07-.65.06-.39.09-.54h-.09a12.37,12.37,0,0,1-1.73,2.77A9.49,9.49,0,0,1,217.44,60a7.47,7.47,0,0,1-3.72.85,9.92,9.92,0,0,1-2.72-.38,7.52,7.52,0,0,1-2.48-1.2,6.19,6.19,0,0,1-1.77-2A6,6,0,0,1,206.07,54.32Zm2-.14a4.65,4.65,0,0,0,1.44,3.34,5.57,5.57,0,0,0,1.8,1.12,6.93,6.93,0,0,0,2.52.42,6.33,6.33,0,0,0,3.29-.85A7.71,7.71,0,0,0,219.51,56,11,11,0,0,0,221,52.92a11.63,11.63,0,0,0,.52-3.36V48.35h-1.44l-2.21,0a23.87,23.87,0,0,0-2.61.18,16.52,16.52,0,0,0-2.63.51,8.51,8.51,0,0,0-2.29,1,5.23,5.23,0,0,0-1.65,1.66A4.5,4.5,0,0,0,208.05,54.18Z"/><path class="cls-1" d="M229.11,58.16a.66.66,0,0,1-.09-1l.27-.32c.3-.36.66-.37,1.08,0a9.45,9.45,0,0,0,.95.7,10.4,10.4,0,0,0,1.39.74,11.21,11.21,0,0,0,1.83.61,9.56,9.56,0,0,0,2.22.24,7.17,7.17,0,0,0,2-.27,4.89,4.89,0,0,0,1.65-.81,4.27,4.27,0,0,0,1.12-1.34,3.76,3.76,0,0,0,.43-1.84,3.09,3.09,0,0,0-.92-2.33,9.38,9.38,0,0,0-2.3-1.57,28.22,28.22,0,0,0-3-1.24,16.45,16.45,0,0,1-3-1.37,8.44,8.44,0,0,1-2.3-1.95,4.66,4.66,0,0,1-.92-3,5.69,5.69,0,0,1,.59-2.63,5.62,5.62,0,0,1,1.57-1.91,6.79,6.79,0,0,1,2.3-1.14,9.5,9.5,0,0,1,2.74-.39,11.85,11.85,0,0,1,2.23.2,9.23,9.23,0,0,1,1.78.51,9.69,9.69,0,0,1,1.28.61,8.25,8.25,0,0,1,.83.57.68.68,0,0,1,.18,1l-.27.36a.67.67,0,0,1-1.08.09,8.68,8.68,0,0,0-1.89-1,8.13,8.13,0,0,0-3.19-.54,7.85,7.85,0,0,0-1.87.23,4.7,4.7,0,0,0-1.64.73A3.67,3.67,0,0,0,232,41.33a4,4,0,0,0-.43,1.88,3.19,3.19,0,0,0,.93,2.4,8.34,8.34,0,0,0,2.29,1.57c.92.44,1.91.85,3,1.24a20.21,20.21,0,0,1,3,1.37,7.72,7.72,0,0,1,2.3,2,4.82,4.82,0,0,1,.92,3,5.62,5.62,0,0,1-.54,2.47,5.41,5.41,0,0,1-1.51,1.91,7.18,7.18,0,0,1-2.29,1.23,8.88,8.88,0,0,1-2.86.45,12.36,12.36,0,0,1-2.77-.28,12.71,12.71,0,0,1-2.18-.7,10.07,10.07,0,0,1-1.62-.89A7.65,7.65,0,0,1,229.11,58.16Z"/></g></g></svg>