<?xml version="1.0" ?><svg height="24px" version="1.1" viewBox="0 0 24 24" width="24px" xmlns="http://www.w3.org/2000/svg" xmlns:sketch="http://www.bohemiancoding.com/sketch/ns" xmlns:xlink="http://www.w3.org/1999/xlink"><title/><desc/><defs/><g fill="none" fill-rule="evenodd" id="miu" stroke="none" stroke-width="1"><g id="Artboard-1" transform="translate(-359.000000, -479.000000)"><g id="slice" transform="translate(215.000000, 119.000000)"/><path d="M360.577138,485 C360.258394,485 360,485.221932 360,485.5 C360,485.776142 360.262396,486 360.577138,486 L381.422862,486 C381.741606,486 382,485.778068 382,485.5 C382,485.223858 381.737604,485 381.422862,485 L360.577138,485 L360.577138,485 Z M360.577138,490 C360.258394,490 360,490.221932 360,490.5 C360,490.776142 360.262396,491 360.577138,491 L381.422862,491 C381.741606,491 382,490.778068 382,490.5 C382,490.223858 381.737604,490 381.422862,490 L360.577138,490 L360.577138,490 Z M360.577138,495 C360.258394,495 360,495.221932 360,495.5 C360,495.776142 360.262396,496 360.577138,496 L381.422862,496 C381.741606,496 382,495.778068 382,495.5 C382,495.223858 381.737604,495 381.422862,495 L360.577138,495 L360.577138,495 Z" fill="#000000" id="editor-list-view-hambuger-menu-outline-stroke"/></g></g></svg>