<svg id="レイヤー_1" data-name="レイヤー 1" xmlns="http://www.w3.org/2000/svg" viewBox="0 0 194.29 71.98"><defs><style>.cls-1{fill:#fff;}.cls-2{fill:#0c3219;}.cls-3{fill:#67bd91;}</style></defs><title>menthas-logo</title><path class="cls-1" d="M59.89,50A113.43,113.43,0,0,0,74,75.81a113.43,113.43,0,0,0-26-13.88q-2.14-.8-4.24-1.5L39.71,41.83l18.65,3.91Q59.07,47.84,59.89,50Z" transform="translate(-2.4 -4.98)"/><path class="cls-2" d="M59.94,50q1.34,3.44,2.9,6.79t3.4,6.55a120.86,120.86,0,0,0,8,12.36l1,1.31L73.89,76a115.13,115.13,0,0,0-14.55-8.72c-2.53-1.27-5.1-2.45-7.72-3.52-1.31-.53-2.63-1-3.95-1.52l-4-1.39-0.25-.09-0.06-.26-2.08-9.3c-0.68-3.1-1.39-6.2-2-9.31l-0.14-.7,0.69,0.15c3.1,0.68,6.2,1.4,9.29,2.13s6.18,1.46,9.29,2.14h0.06l0,0.05Zm-0.09,0-1.59-4.21,0.08,0.07c-3.11-.63-6.24-1.19-9.36-1.78s-6.25-1.16-9.36-1.78l0.54-.55c0.74,3.09,1.4,6.2,2.09,9.29l2,9.31L44,60l4,1.44c1.35,0.51,2.66,1,4,1.6q3.93,1.68,7.73,3.64A115.76,115.76,0,0,1,74.2,75.6L73.83,76A112.13,112.13,0,0,1,66,63.41c-1.16-2.17-2.26-4.38-3.28-6.62S60.74,52.29,59.85,50Z" transform="translate(-2.4 -4.98)"/><path class="cls-1" d="M29.93,20.32a113.43,113.43,0,0,1-26-13.88A113.43,113.43,0,0,1,18.09,32.28q0.83,2.13,1.54,4.23l18.65,3.91L34.17,21.81Q32.07,21.12,29.93,20.32Z" transform="translate(-2.4 -4.98)"/><path class="cls-2" d="M29.91,20.36c-1.15-.43-2.31-0.86-3.45-1.32L23,17.63q-3.41-1.44-6.73-3.09C15.2,14,14.12,13.39,13,12.78s-2.16-1.21-3.19-1.88C7.76,9.58,5.7,8.21,3.73,6.72l0.49-.5C5.86,8.56,7.37,11,8.85,13.39c0.74,1.22,1.46,2.44,2.15,3.68s1.41,2.47,2.07,3.73c1.33,2.51,2.62,5,3.79,7.64,0.58,1.3,1.15,2.59,1.68,3.93l1.51,4-0.33-.29,9.34,1.88c3.11,0.64,6.21,1.32,9.32,2l-0.6.61q-0.52-2.32-1-4.66c-0.31-1.56-.64-3.11-0.93-4.67L35,26.51c-0.31-1.56-.58-3.12-0.92-4.68l0.07,0.07Zm0-.09,4.26,1.45,0.05,0v0.06c0.35,1.55.76,3.08,1.14,4.63L36.57,31c0.4,1.54.76,3.09,1.13,4.63s0.74,3.09,1.08,4.64l0.17,0.77-0.77-.16C35.07,40.26,32,39.64,28.85,39l-9.31-2-0.25-.05-0.08-.23-1.4-4c-0.48-1.31-1-2.64-1.52-4-1.07-2.62-2.23-5.21-3.53-7.73q-1-1.89-2-3.74C10,16,9.29,14.79,8.53,13.59,7,11.2,5.35,8.9,3.65,6.64L2.4,5,4.14,6.14l3.07,2q1.54,1,3.11,2l3.14,1.92c1.05,0.63,2.12,1.23,3.19,1.84q3.2,1.83,6.52,3.45C25.37,18.44,27.65,19.37,29.94,20.27Z" transform="translate(-2.4 -4.98)"/><path class="cls-3" d="M55.61,36.18l8.31-19.81L44.19,24.89,40.3,26.64,40.19,40.34l13.71-.26Z" transform="translate(-2.4 -4.98)"/><path class="cls-3" d="M34.1,57.91L14.38,66.43l8.31-19.81,1.71-3.91,13.71-.26L38,56.16Z" transform="translate(-2.4 -4.98)"/><path class="cls-3" d="M29.26,31.49l8.12,3.27L39,35.43V41.1l-5.66.07-0.69-1.59" transform="translate(-2.4 -4.98)"/><path class="cls-3" d="M48.9,50.93l-8.12-3.27L39.18,47V41.33l5.66-.07,0.69,1.59" transform="translate(-2.4 -4.98)"/><path class="cls-1" d="M98.14,52.87a1.32,1.32,0,0,1-2.61.24L91.16,33.46,85,47.86a1.34,1.34,0,0,1-2.6,0L76.2,33.43,71.83,53.1a1.31,1.31,0,0,1-2.6-.23,1,1,0,0,1,.05-0.33l5.2-23.41a1.34,1.34,0,0,1,1.34-1.26,1.39,1.39,0,0,1,1.29,1L83.69,44.2l6.57-15.33a1.39,1.39,0,0,1,1.29-1,1.36,1.36,0,0,1,1.36,1.26l5.2,23.41A1.48,1.48,0,0,1,98.14,52.87Z" transform="translate(-2.4 -4.98)"/><path class="cls-3" d="M117.21,48.86a1.62,1.62,0,0,1-.18.69,8.21,8.21,0,0,1-3.33,3.33,9.31,9.31,0,0,1-4.63,1.26,9.21,9.21,0,0,1-9.2-9.2,9,9,0,0,1,12-8.68,11.3,11.3,0,0,1,3.29,1.85q2,1.57,2,3a1.15,1.15,0,0,1-.65,1.07l-12.39,7.16a6.26,6.26,0,0,0,4.91,2.22A6.06,6.06,0,0,0,114,49.25q0.23-.34.75-1a1.41,1.41,0,0,1,1.07-.68,1.38,1.38,0,0,1,1,.38A1.2,1.2,0,0,1,117.21,48.86ZM114,40.59a6.57,6.57,0,0,0-11.49,4.33,6.53,6.53,0,0,0,.34,2.1Z" transform="translate(-2.4 -4.98)"/><path class="cls-1" d="M133.85,52.81a1.31,1.31,0,1,1-2.62,0V42.3a3.95,3.95,0,0,0-7.89,0V52.81a1.31,1.31,0,1,1-2.62,0V37a1.32,1.32,0,0,1,2.64,0,6.57,6.57,0,0,1,10.5,5.25V52.81Z" transform="translate(-2.4 -4.98)"/><path class="cls-1" d="M149.6,51.56a2.17,2.17,0,0,1-1.37,2,5.68,5.68,0,0,1-2.57.54,5.28,5.28,0,0,1-5.26-5.26V38.36h-2.62a1.31,1.31,0,1,1,0-2.62h2.62V29.18a1.31,1.31,0,1,1,2.62,0v6.56h2.62a1.31,1.31,0,1,1,0,2.62H143V48.87a2.55,2.55,0,0,0,.77,1.86,2.52,2.52,0,0,0,1.86.78,2.7,2.7,0,0,0,1.7-.65,2.43,2.43,0,0,1,1.2-.65Q149.6,50.21,149.6,51.56Z" transform="translate(-2.4 -4.98)"/><path class="cls-1" d="M166.22,52.81a1.31,1.31,0,1,1-2.62,0V42.3a3.95,3.95,0,0,0-7.89,0V52.81a1.31,1.31,0,1,1-2.62,0V29.18a1.31,1.31,0,1,1,2.62,0v7.87a6.58,6.58,0,0,1,10.51,5.25V52.81Z" transform="translate(-2.4 -4.98)"/><path class="cls-1" d="M182,52.81a1.17,1.17,0,0,1-1.32,1.32,1.15,1.15,0,0,1-1.3-1.32,6.55,6.55,0,0,1-8.58-.61A6.57,6.57,0,0,1,175.43,41a6.39,6.39,0,0,1,3.94,1.32,4,4,0,0,0-3.94-4,4,4,0,0,0-2.29.79,4.39,4.39,0,0,1-1.42.79,1.39,1.39,0,0,1-1.36-1.36,1.47,1.47,0,0,1,.42-0.93,5.71,5.71,0,0,1,4.64-1.92A6.57,6.57,0,0,1,182,42.3V52.81Zm-2.62-5.25a4,4,0,1,0-1.16,2.79A3.8,3.8,0,0,0,179.37,47.56Z" transform="translate(-2.4 -4.98)"/><path class="cls-1" d="M196.69,48.39a5.75,5.75,0,0,1-1.82,4.27,6,6,0,0,1-4.35,1.78A6.18,6.18,0,0,1,187,53.36a5.74,5.74,0,0,1-2.25-2.8,1.52,1.52,0,0,1-.11-0.54,1.19,1.19,0,0,1,.44-0.93,1.48,1.48,0,0,1,1-.38,1.51,1.51,0,0,1,1.19.79A14.74,14.74,0,0,0,188.32,51a3.07,3.07,0,0,0,2.21.79,3.32,3.32,0,0,0,2.42-1,3.22,3.22,0,0,0,1-2.38q0-3.07-3.52-3.37A5.5,5.5,0,0,1,187,43.66a4.3,4.3,0,0,1-1.4-3.34A4.48,4.48,0,0,1,187,37a4.69,4.69,0,0,1,3.4-1.38A4.34,4.34,0,0,1,194.55,38a1.53,1.53,0,0,1,.21.71,1.23,1.23,0,0,1-.44.95,1.46,1.46,0,0,1-1,.39,1.86,1.86,0,0,1-1.27-.85,2.08,2.08,0,0,0-1.65-.85,2,2,0,0,0-1.46.6,1.94,1.94,0,0,0-.61,1.42q0,1.82,2.16,2a7.36,7.36,0,0,1,4.41,1.78A5.52,5.52,0,0,1,196.69,48.39Z" transform="translate(-2.4 -4.98)"/></svg>