<?xml version="1.0" standalone="no"?>
<!DOCTYPE svg PUBLIC "-//W3C//DTD SVG 20010904//EN"
 "http://www.w3.org/TR/2001/REC-SVG-20010904/DTD/svg10.dtd">
<svg version="1.0" xmlns="http://www.w3.org/2000/svg"
 width="260.000000pt" height="260.000000pt" viewBox="0 0 260.000000 260.000000"
 preserveAspectRatio="xMidYMid meet">
<metadata>
Created by potrace 1.11, written by Peter Selinger 2001-2013
</metadata>
<g transform="translate(0.000000,260.000000) scale(0.100000,-0.100000)"
fill="#000000" stroke="none">
<path d="M130 2454 c0 -3 29 -47 64 -98 173 -249 331 -555 428 -826 33 -94 36
-99 64 -105 10 -2 108 -23 216 -46 192 -41 197 -43 207 -71 12 -34 3 -32 134
-29 l72 1 2 96 1 95 -34 16 c-19 9 -34 20 -34 23 0 3 -18 87 -41 186 -22 98
-43 190 -45 204 -3 14 -8 28 -12 31 -4 3 -65 27 -137 53 -233 85 -621 289
-822 432 -35 25 -63 42 -63 38z"/>
<path d="M2115 2100 c-22 -10 -197 -86 -390 -170 -192 -83 -354 -155 -359
-160 -13 -13 -14 -459 -1 -463 5 -2 39 -2 75 -1 36 2 134 4 218 5 146 2 154 3
168 24 16 25 338 787 331 784 -1 0 -20 -9 -42 -19z"/>
<path d="M1326 1270 c-2 -3 -4 -47 -5 -98 l-2 -93 29 -10 c29 -10 33 -21 67
-184 13 -58 26 -126 27 -130 0 -2 8 -32 17 -66 16 -60 18 -63 61 -80 377 -143
593 -249 850 -418 63 -42 121 -80 129 -85 8 -5 -1 13 -20 40 -208 289 -362
581 -493 935 l-17 46 -147 32 c-81 17 -156 33 -167 35 -26 5 -75 17 -98 23 -9
2 -23 16 -31 31 -14 26 -17 27 -106 27 -50 0 -93 -2 -94 -5z"/>
<path d="M929 1232 l-107 -3 -77 -182 c-42 -100 -83 -195 -91 -212 -53 -121
-165 -398 -162 -401 5 -4 47 13 433 181 149 64 290 126 315 136 l45 20 1 233
1 233 -126 -1 c-69 -1 -174 -2 -232 -4z"/>
</g>
</svg>
