<svg xmlns="http://www.w3.org/2000/svg" viewBox="0 0 258.58 87.46"><defs><style>.cls-1{fill:#fff;}.cls-2{fill:#0c3219;}.cls-3{fill:#67bd91;}</style></defs><g id="レイヤー_2" data-name="レイヤー 2"><g id="レイヤー_1-2" data-name="レイヤー 1"><path class="cls-1" d="M70,54.71A138.26,138.26,0,0,0,87.27,86.3a138.78,138.78,0,0,0-31.77-17c-1.75-.66-3.48-1.26-5.19-1.83l-5-22.74,22.79,4.78Q68.95,52.11,70,54.71Z"/><path class="cls-2" d="M70,54.69A126.47,126.47,0,0,0,77.69,71a148.68,148.68,0,0,0,9.79,15.14l1,1.31-1.34-.94A140.55,140.55,0,0,0,69.33,75.83c-3.09-1.55-6.23-3-9.43-4.31-1.6-.65-3.21-1.28-4.84-1.87L50.16,68l-.26-.09,0-.26L47.31,56.24c-.83-3.79-1.7-7.58-2.47-11.38l-.15-.7.69.15C53,46,60.52,47.79,68.1,49.44l.06,0,0,0Zm-.09,0L68,49.58l.07.06c-7.61-1.53-15.26-2.89-22.87-4.43l.55-.55c.89,3.78,1.7,7.57,2.54,11.36L50.77,67.4l-.31-.35,4.91,1.76c1.63.62,3.24,1.27,4.85,1.94,3.2,1.37,6.35,2.84,9.44,4.44A140.76,140.76,0,0,1,87.42,86.08l-.37.38a138.75,138.75,0,0,1-9.57-15.33A152,152,0,0,1,69.92,54.73Z"/><path class="cls-1" d="M33.33,18.46a138.78,138.78,0,0,1-31.77-17,138.63,138.63,0,0,1,17.3,31.59c.68,1.74,1.3,3.46,1.89,5.17L43.54,43l-5-22.74C36.81,19.72,35.08,19.12,33.33,18.46Z"/><path class="cls-2" d="M33.31,18.51c-2.83-1-5.61-2.2-8.38-3.37s-5.51-2.46-8.2-3.82S11.41,8.46,8.84,6.87,3.77,3.58,1.35,1.78l.5-.5c2,2.84,3.87,5.77,5.69,8.73s3.51,6,5.15,9,3.19,6.18,4.61,9.35c.7,1.59,1.4,3.19,2,4.81l1.84,4.88-.33-.29,11.41,2.32,11.4,2.41-.6.6q-.64-2.84-1.21-5.7l-1.15-5.7L39.57,26c-.39-1.9-.74-3.81-1.15-5.71l.07.07Zm0-.1,5.2,1.78.05,0,0,.06C39,22.16,39.53,24,40,25.93l1.39,5.65,1.36,5.67q.68,2.84,1.31,5.67l.16.77-.76-.16L32,41.15,20.65,38.69l-.24-.06-.09-.24L18.6,33.5q-.9-2.43-1.88-4.84c-1.32-3.2-2.75-6.36-4.34-9.43s-3.3-6.1-5.16-9S3.35,4.47,1.27,1.7L0,0,1.77,1.2c2.48,1.68,5,3.35,7.54,4.91s5.13,3.13,7.75,4.58,5.28,2.88,8,4.18S30.55,17.32,33.35,18.41Z"/><path class="cls-3" d="M64.72,37.86q5.09-12.12,10.16-24.22L50.77,24.05,46,26.19l-.14,16.75,16.76-.31Z"/><path class="cls-3" d="M38.44,64.42,14.33,74.83q5.07-12.1,10.16-24.22l2.08-4.77,16.76-.32-.14,16.76Z"/><path class="cls-3" d="M32.52,32.12l9.92,4,2,.83v6.92L37.45,44l-.84-2"/><path class="cls-3" d="M56.53,55.88l-9.93-4-2-.82V44.14l6.93-.09.84,2"/><path class="cls-1" d="M125,60c-.64,0-.92-.26-.92-.85l-1.67-21.34c0-.31,0-.65-.06-1l0-1.21c0-.4,0-.79,0-1.17V33.14h-.35l-.13.15c-.09.3-.2.65-.34,1s-.27.79-.42,1.2-.3.8-.45,1.18l-.4,1-7.1,15.54A1,1,0,0,1,112,54h-1.08a1,1,0,0,1-1.11-.73l-7.06-15.57c-.24-.57-.52-1.31-.85-2.21s-.6-1.68-.81-2.32l0-.14h-.35l-.09.2c0,.61,0,1.37,0,2.27s0,1.65-.11,2.26L98.81,59.12a.82.82,0,0,1-.93.86H97a1,1,0,0,1-.73-.23A.91.91,0,0,1,96.1,59l2.38-29.75c0-.6.29-.86.93-.86h1.21a1.17,1.17,0,0,1,1.13.74l7.9,17.92.81,2c.3.76.56,1.39.77,1.87l0,.12h.28l.13-.14c.15-.48.37-1.1.67-1.85s.58-1.43.85-2l7.91-17.92a1.15,1.15,0,0,1,1.12-.74h1.21a.88.88,0,0,1,.93.86L126.76,59a1,1,0,0,1-.21.75.87.87,0,0,1-.67.22Z"/><path class="cls-3" d="M136.59,60.07a1.3,1.3,0,0,1-.88-.29A10.13,10.13,0,0,1,132,52c0-5.15,5.33-14.75,15.52-14.75,1,0,1.1.53,1.12.7a11.93,11.93,0,0,1,.25,2.55c0,5.53-5.18,9.4-8.45,10.54a2.35,2.35,0,0,1-.71.12,1,1,0,0,1-1.11-.75.89.89,0,0,1,.7-1c5.35-2.11,7.34-6.26,7.34-8.38,0-.63-.19-1.83-.19-1.88l0-.2-.2,0c-8.49,1.14-12,9.25-12,13.34a7.44,7.44,0,0,0,2.58,5.88l.08.06,9.73-2.09.37,0a1,1,0,0,1,1.11.83c0,.34-.2.75-.92.87l-10,2.17A3.25,3.25,0,0,1,136.59,60.07Z"/><path class="cls-1" d="M172.62,60c-.6,0-.88-.29-.88-.94V46.44c0-2.42-.4-4.21-1.2-5.3a4.58,4.58,0,0,0-3.94-1.67,8.35,8.35,0,0,0-3.5.74,8.79,8.79,0,0,0-2.78,2,9.42,9.42,0,0,0-1.84,3,10.42,10.42,0,0,0-.66,3.73V59c0,.65-.27.94-.88.94h-.86c-.64,0-.92-.29-.92-.94V38.44c0-.65.28-.94.92-.94h.81c.61,0,.88.29.88.94v2.64a6.77,6.77,0,0,1-.06.92c-.05.3-.09.53-.11.68l0,.23h.38l.14-.12a7.9,7.9,0,0,1,1.4-2.31,10.25,10.25,0,0,1,2.14-1.85,11.07,11.07,0,0,1,2.6-1.23A9.3,9.3,0,0,1,167,37c2.56,0,4.45.69,5.62,2.06s1.77,3.61,1.77,6.6V59c0,.65-.28.94-.92.94Z"/><path class="cls-1" d="M190.06,60.16A7.51,7.51,0,0,1,184.32,58a8.57,8.57,0,0,1-2-6.07V39.88h-2.09c-.61,0-.88-.28-.88-.9v-.36c0-.65.27-.94.88-.94h2.13V32.12c0-.65.29-.94.92-.94h.81c.61,0,.88.29.88.94v5.56h4.79c.64,0,.92.29.92.94V39c0,.62-.28.9-.92.9H185V51.54A6.9,6.9,0,0,0,186.29,56a4.9,4.9,0,0,0,3.81,1.73,1.56,1.56,0,0,1,.81.29.85.85,0,0,1,.21.65v.59C191.12,59.69,191,60.16,190.06,60.16Z"/><path class="cls-1" d="M213.3,60c-.64,0-.93-.29-.93-.94V46.44c0-2.42-.39-4.21-1.18-5.3a4.56,4.56,0,0,0-4-1.67,8.23,8.23,0,0,0-3.48.74,8.84,8.84,0,0,0-2.76,2,9.84,9.84,0,0,0-1.84,3.07,10.76,10.76,0,0,0-.66,3.8V59c0,.65-.28.94-.92.94h-.86c-.61,0-.88-.29-.88-.94V29.34c0-.65.27-.93.88-.93h.86c.64,0,.92.28.92.93V40.76a7.59,7.59,0,0,1-.07,1.09c0,.34-.08.59-.11.74l0,.23h.37l.15-.12a7.85,7.85,0,0,1,1.38-2.24,9.92,9.92,0,0,1,2.09-1.83,10.75,10.75,0,0,1,2.58-1.23,9.29,9.29,0,0,1,2.79-.44c2.57,0,4.46.69,5.63,2.06s1.77,3.61,1.77,6.6V59c0,.65-.27.94-.88.94Z"/><path class="cls-1" d="M227.59,60.53a9.13,9.13,0,0,1-3-.49,7.25,7.25,0,0,1-2.36-1.35,5.93,5.93,0,0,1-1.53-2,6.35,6.35,0,0,1,2.95-8.23c2.36-1.35,5.76-2,10.11-2h1.5v-.92c0-4-1.94-6.07-5.77-6.07a10.78,10.78,0,0,0-2.89.41,10.46,10.46,0,0,0-2.7,1.21,1.3,1.3,0,0,1-.58.17.78.78,0,0,1-.67-.47l-.27-.45a1,1,0,0,1-.21-.74.9.9,0,0,1,.46-.55A13.76,13.76,0,0,1,226,37.5,13.53,13.53,0,0,1,229.7,37a8.06,8.06,0,0,1,6.1,2.19c1.4,1.45,2.11,3.6,2.11,6.38V59c0,.65-.27.94-.88.94h-.72c-.64,0-.93-.29-.93-.94V57.22c0-.36,0-.7,0-1a1.8,1.8,0,0,1,.1-.64l.1-.28h-.41l-.15.12A10.7,10.7,0,0,1,233.37,58a8.87,8.87,0,0,1-2.31,1.76A7,7,0,0,1,227.59,60.53Zm6.2-12.24c-3.55,0-6.27.46-8.09,1.36a4.45,4.45,0,0,0-2.81,4.12,4.19,4.19,0,0,0,1.49,3.29,5.58,5.58,0,0,0,3.75,1.27,5.85,5.85,0,0,0,2.74-.68,7.35,7.35,0,0,0,2.27-1.87A9.49,9.49,0,0,0,234.68,53a10.09,10.09,0,0,0,.57-3.41V48.29Z"/><path class="cls-1" d="M251.14,60.53a12.56,12.56,0,0,1-4.12-.7,10.69,10.69,0,0,1-3.39-1.89.85.85,0,0,1-.4-.52,1.06,1.06,0,0,1,.25-.76l.36-.45a.69.69,0,0,1,.59-.36,1.25,1.25,0,0,1,.67.23A10,10,0,0,0,248,57.64a9.82,9.82,0,0,0,3.21.56,5.42,5.42,0,0,0,3.45-1.05A3.44,3.44,0,0,0,256,54.31a2.86,2.86,0,0,0-1-2.22,9.36,9.36,0,0,0-2.29-1.44c-.9-.41-1.88-.81-2.92-1.19a15.72,15.72,0,0,1-2.86-1.37,7.64,7.64,0,0,1-2.19-2,4.8,4.8,0,0,1-.86-3,5.94,5.94,0,0,1,.52-2.51,5.78,5.78,0,0,1,1.5-2,6.79,6.79,0,0,1,2.36-1.28,10.32,10.32,0,0,1,3.1-.44,10.89,10.89,0,0,1,3.27.49,10.08,10.08,0,0,1,2.82,1.34.79.79,0,0,1,.26,1.23l-.31.5c-.19.32-.4.48-.64.48a1.16,1.16,0,0,1-.61-.23,9.19,9.19,0,0,0-2.35-1.09,8.94,8.94,0,0,0-2.62-.39,5.2,5.2,0,0,0-3.4,1A3.35,3.35,0,0,0,246.53,43a3,3,0,0,0,1,2.29,9.07,9.07,0,0,0,2.27,1.47c.89.41,1.88.8,2.92,1.16a14.47,14.47,0,0,1,2.86,1.35,7.74,7.74,0,0,1,2.17,2,4.92,4.92,0,0,1,.86,3,5.91,5.91,0,0,1-.54,2.55,5.7,5.7,0,0,1-1.52,2,7.47,7.47,0,0,1-2.37,1.28A9.4,9.4,0,0,1,251.14,60.53Z"/></g></g></svg>