<svg xmlns="http://www.w3.org/2000/svg" viewBox="0 0 245.99 87.46"><defs><style>.cls-1{fill:#fff;}.cls-2{fill:#0c3219;}.cls-3{fill:#67bd91;}</style></defs><title>アセット 4</title><g id="レイヤー_2" data-name="レイヤー 2"><g id="レイヤー_1-2" data-name="レイヤー 1"><path class="cls-1" d="M70,54.71A138.26,138.26,0,0,0,87.27,86.3a138.78,138.78,0,0,0-31.77-17c-1.75-.66-3.48-1.26-5.19-1.83l-5-22.74,22.79,4.78Q68.95,52.11,70,54.71Z"/><path class="cls-2" d="M70,54.69A126.47,126.47,0,0,0,77.69,71a148.68,148.68,0,0,0,9.79,15.14l1,1.31-1.34-.94A140.55,140.55,0,0,0,69.33,75.83c-3.09-1.55-6.23-3-9.43-4.31-1.6-.65-3.21-1.28-4.84-1.87L50.16,68l-.26-.09,0-.26L47.31,56.24c-.83-3.79-1.7-7.58-2.47-11.38l-.15-.7.69.15C53,46,60.52,47.79,68.1,49.44l.06,0,0,0Zm-.09,0L68,49.58l.07.06c-7.61-1.53-15.26-2.89-22.87-4.43l.55-.55c.89,3.78,1.7,7.57,2.54,11.36L50.77,67.4l-.31-.35,4.91,1.76c1.63.62,3.24,1.27,4.85,1.94,3.2,1.37,6.35,2.84,9.44,4.44A140.76,140.76,0,0,1,87.42,86.08l-.37.38a138.75,138.75,0,0,1-9.57-15.33A152,152,0,0,1,69.92,54.73Z"/><path class="cls-1" d="M33.33,18.46a138.78,138.78,0,0,1-31.77-17,138.63,138.63,0,0,1,17.3,31.59c.68,1.74,1.3,3.46,1.89,5.17L43.54,43l-5-22.74C36.81,19.72,35.08,19.12,33.33,18.46Z"/><path class="cls-2" d="M33.31,18.51c-2.83-1-5.61-2.2-8.38-3.37s-5.51-2.46-8.2-3.82S11.41,8.46,8.84,6.87,3.77,3.58,1.35,1.78l.5-.5c2,2.84,3.87,5.77,5.69,8.73s3.51,6,5.15,9,3.19,6.18,4.61,9.35c.7,1.59,1.4,3.19,2,4.81l1.84,4.88-.33-.29,11.41,2.32,11.4,2.41-.6.6q-.64-2.84-1.21-5.7l-1.15-5.7L39.57,26c-.39-1.9-.74-3.81-1.15-5.71l.07.07Zm0-.1,5.2,1.78.05,0,0,.06C39,22.16,39.53,24,40,25.93l1.39,5.65,1.36,5.67q.68,2.84,1.31,5.67l.16.77-.76-.16L32,41.15,20.65,38.69l-.24-.06-.09-.24L18.6,33.5q-.9-2.43-1.88-4.84c-1.32-3.2-2.75-6.36-4.34-9.43s-3.3-6.1-5.16-9S3.35,4.47,1.27,1.7L0,0,1.77,1.2c2.48,1.68,5,3.35,7.54,4.91s5.13,3.13,7.75,4.58,5.28,2.88,8,4.18S30.55,17.32,33.35,18.41Z"/><path class="cls-3" d="M64.72,37.86q5.09-12.12,10.16-24.22L50.77,24.05,46,26.19l-.14,16.75,16.76-.31Z"/><path class="cls-3" d="M38.44,64.42,14.33,74.83q5.07-12.1,10.16-24.22l2.08-4.77,16.76-.32-.14,16.76Z"/><path class="cls-3" d="M32.52,32.12l9.92,4,2,.83v6.92L37.45,44l-.84-2"/><path class="cls-3" d="M56.53,55.88l-9.93-4-2-.82V44.14l6.93-.09.84,2"/><path class="cls-1" d="M85.29,29.72c0-.69.38-1,1.13-1h1.21a1.36,1.36,0,0,1,1.31.85l7.92,17.73.81,2c.3.75.55,1.36.76,1.84h.09c.15-.48.38-1.09.68-1.84s.58-1.43.85-2L108,29.54a1.36,1.36,0,0,1,1.31-.85h1.21a1.08,1.08,0,0,1,1.13,1L114,59.15q0,1.17-1.08,1.17H112c-.75,0-1.12-.34-1.12-1l-1.67-21.11c0-.3,0-.64-.06-1s0-.79,0-1.19,0-.8,0-1.17v-1H109c-.09.3-.2.65-.34,1s-.28.79-.43,1.19-.3.8-.45,1.17l-.4,1-7.11,15.39a1.23,1.23,0,0,1-1.26.86H97.94a1.2,1.2,0,0,1-1.31-.86L89.57,38.18c-.24-.57-.53-1.3-.86-2.2s-.6-1.67-.81-2.3h-.09c0,.61,0,1.35,0,2.25s-.05,1.65-.11,2.25L86,59.29a1,1,0,0,1-1.12,1H84q-1.21,0-1.08-1.17Z"/><path class="cls-3" d="M124.27,60.34a1.84,1.84,0,0,1-1.63-.26,10.25,10.25,0,0,1-3.76-7.9c0-5.25,5.45-14.79,15.74-14.79.88,0,1.26.36,1.32.87a11.91,11.91,0,0,1,.25,2.55c0,5.66-5.33,9.48-8.59,10.6-2.07.67-2.83-1.37-1.26-1.93,5.08-2,7.22-5.92,7.22-8.11a17.12,17.12,0,0,0-.19-1.84c-8.79,1.18-11.86,9.49-11.86,13A7.19,7.19,0,0,0,124,58.2l9.66-2c1.82-.36,2.45,1.73.63,2Z"/><path class="cls-1" d="M142,38.81a1,1,0,0,1,1.12-1.12H144c.72,0,1.08.37,1.08,1.12v2.61a7.23,7.23,0,0,1-.06.95c-.05.3-.09.52-.12.67H145a8.09,8.09,0,0,1,1.44-2.34,9.81,9.81,0,0,1,2.19-1.86,11.06,11.06,0,0,1,2.65-1.24,9.43,9.43,0,0,1,2.86-.45q4,0,5.78,2.11c1.22,1.41,1.82,3.63,1.82,6.66V59.2a1,1,0,0,1-1.12,1.12h-.86c-.72,0-1.08-.37-1.08-1.12V46.73q0-3.55-1.17-5.13A4.4,4.4,0,0,0,153.69,40a8.13,8.13,0,0,0-3.42.72,8.45,8.45,0,0,0-2.72,2,9.2,9.2,0,0,0-1.8,2.92,10.07,10.07,0,0,0-.65,3.62v10c0,.75-.36,1.12-1.08,1.12h-.86A1,1,0,0,1,142,59.2Z"/><path class="cls-1" d="M169.22,40.43h-1.89a1,1,0,0,1-1.08-1.08V39a1,1,0,0,1,1.08-1.12h1.93V32.56a1,1,0,0,1,1.13-1.13h.81c.72,0,1.08.38,1.08,1.13v5.31h4.59A1,1,0,0,1,178,39v.36c0,.72-.37,1.08-1.12,1.08h-4.59V51.77a6.58,6.58,0,0,0,1.28,4.3,4.73,4.73,0,0,0,3.67,1.64,1.78,1.78,0,0,1,.94.34,1,1,0,0,1,.27.79v.58q0,1.08-1.26,1.08a7.71,7.71,0,0,1-5.89-2.18,8.56,8.56,0,0,1-2.07-6.14Z"/><path class="cls-1" d="M182.76,29.81c0-.75.36-1.12,1.08-1.12h.86a1,1,0,0,1,1.12,1.12v11.3a9.48,9.48,0,0,1-.06,1.1c0,.35-.09.59-.12.74h.09a8.28,8.28,0,0,1,1.42-2.27,10.25,10.25,0,0,1,2.14-1.84,10.75,10.75,0,0,1,2.63-1.24,9.43,9.43,0,0,1,2.86-.45q4,0,5.78,2.11c1.22,1.41,1.82,3.63,1.82,6.66V59.2c0,.75-.36,1.12-1.08,1.12h-.85a1,1,0,0,1-1.13-1.12V46.73q0-3.55-1.14-5.13A4.41,4.41,0,0,0,194.37,40a7.93,7.93,0,0,0-3.39.72,8.28,8.28,0,0,0-2.7,2,9.09,9.09,0,0,0-1.8,3,10.16,10.16,0,0,0-.66,3.69V59.2a1,1,0,0,1-1.12,1.12h-.86c-.72,0-1.08-.37-1.08-1.12Z"/><path class="cls-1" d="M207.11,54.25a6.34,6.34,0,0,1,3.6-5.74q3.6-2,10.21-2h1.31v-.71q0-5.8-5.58-5.81a10.46,10.46,0,0,0-2.84.4,10,10,0,0,0-2.65,1.17,1,1,0,0,1-1.53-.36l-.27-.45a1,1,0,0,1,.31-1.54,13.31,13.31,0,0,1,3.4-1.46,13.59,13.59,0,0,1,3.8-.55,8.31,8.31,0,0,1,6.26,2.23q2.16,2.22,2.16,6.45V59.2c0,.75-.36,1.12-1.08,1.12h-.72a1,1,0,0,1-1.13-1.12V57.4c0-.36,0-.7,0-1a2.16,2.16,0,0,1,.11-.7h-.09a11.17,11.17,0,0,1-1.71,2.59,9.63,9.63,0,0,1-2.36,1.77,7.32,7.32,0,0,1-3.58.81,9.25,9.25,0,0,1-3.08-.49A7.36,7.36,0,0,1,209.25,59a6.16,6.16,0,0,1-2.14-4.75Zm3.15-.27a3.88,3.88,0,0,0,1.42,3.1,5.36,5.36,0,0,0,3.62,1.22,5.73,5.73,0,0,0,2.65-.65,7.18,7.18,0,0,0,2.21-1.8,9.3,9.3,0,0,0,1.51-2.7,9.79,9.79,0,0,0,.56-3.31V48.76H221q-5.31,0-8,1.33A4.19,4.19,0,0,0,210.26,54Z"/><path class="cls-1" d="M230.69,58.25q-.85-.59-.18-1.53l.36-.45c.36-.51.87-.56,1.53-.18a9.55,9.55,0,0,0,2.83,1.53,9.66,9.66,0,0,0,3.15.54,5.24,5.24,0,0,0,3.33-1A3.19,3.19,0,0,0,243,54.52a2.6,2.6,0,0,0-.9-2.05,9,9,0,0,0-2.25-1.39c-.9-.41-1.87-.8-2.9-1.17a16.84,16.84,0,0,1-2.9-1.38,8,8,0,0,1-2.25-2,4.88,4.88,0,0,1-.9-3.06,6,6,0,0,1,.54-2.56,5.77,5.77,0,0,1,1.55-2,6.9,6.9,0,0,1,2.43-1.3,10.42,10.42,0,0,1,3.17-.45,11.33,11.33,0,0,1,3.33.49A10.62,10.62,0,0,1,244.77,39a1,1,0,0,1,.32,1.49l-.32.49a1,1,0,0,1-1.53.32,9,9,0,0,0-4.86-1.44,5.08,5.08,0,0,0-3.28.94,3.13,3.13,0,0,0-1.17,2.57,2.7,2.7,0,0,0,.9,2.11,8.64,8.64,0,0,0,2.22,1.42A31,31,0,0,0,240,48a14.82,14.82,0,0,1,2.9,1.35,8.09,8.09,0,0,1,2.23,2,5,5,0,0,1,.9,3.08,5.88,5.88,0,0,1-2.14,4.62,7.63,7.63,0,0,1-2.43,1.3,9.56,9.56,0,0,1-3.08.47,12.92,12.92,0,0,1-4.19-.69A10.81,10.81,0,0,1,230.69,58.25Z"/></g></g></svg>